<svg xmlns="http://www.w3.org/2000/svg" width="41" height="37" viewBox="0 0 41 37">
    <g fill="#B3B3B3" fill-rule="evenodd">
        <path d="M15.918 10.71s-.531-.642-1.514-1.65C12.511 7.112-.324-2.409-3.998-10.982c-8.087 7.335-8.665 19.796-1.287 27.838l3.043 3.314c.007.01 3.374 3.734-.004 7.09L-15.998 40.93s4.27-2.818 14.095-1.773c0-.011-.01-.043-.01-.043s17.083 2.373 21.856-9.195c.152-.47.322-.962.43-1.378.195-.722.347-1.372.434-1.82.094-.5.133-.801.133-.801l-.068-.007c.563-5.353-1.005-10.9-4.954-15.201"/>
        <path d="M28.772 10c.984 0 1.776.796 1.776 1.776a1.775 1.775 0 0 1-3.548 0c0-.98.792-1.776 1.772-1.776M18 8.792c.83.898 1.545 1.855 2.203 2.838A22.929 22.929 0 0 1 23.668 29c2.398-6.644 7.446-12.055 13.91-15.06A27.677 27.677 0 0 1 41 12.59c-6.326-5.846-15.443-7.098-23-3.798"/>
    </g>
</svg>
